# xmcd
#
# Track frame offsets:
#	150
#	12168
#	26661
#	38054
#	54882
#	67212
#	84170
#	96314
#	109800
#	125101
#	136671
#
# Disc length: 2025 seconds
#
# Revision: 1
# Processed by: cddbd v1.5.2PL0 Copyright (c) Steve Scherf et al.
# Submitted via: EasyCDDAExtractor 7.0.3.1
#
DISCID=8c07e70b
DTITLE=Penny Gilley - A Picture Of Me
DYEAR=2002
DGENRE=Country
TTITLE0=Excuse Me
TTITLE1=Eventually
TTITLE2=Honky Tonk Girl
TTITLE3=There He Goes
TTITLE4=Coffee Song
TTITLE5=The Line Drawn in the Sand
TTITLE6=Wish I Could Fall in Love Today
TTITLE7=Mother's Love
TTITLE8=Picture Of Me
TTITLE9=A Jack to A King
TTITLE10=God Bless the USA
EXTD=
EXTT0=
EXTT1=
EXTT2=
EXTT3=
EXTT4=
EXTT5=
EXTT6=
EXTT7=
EXTT8=
EXTT9=
EXTT10=
PLAYORDER=
